<svg width="40" height="40" viewBox="0 0 40 40" fill="none" xmlns="http://www.w3.org/2000/svg">
<path d="M26.6663 6.66663H19.9997C19.5576 6.66663 19.1337 6.84222 18.8212 7.15478C18.5086 7.46734 18.333 7.89126 18.333 8.33329C18.333 8.77532 18.5086 9.19924 18.8212 9.5118C19.1337 9.82436 19.5576 9.99996 19.9997 9.99996H26.6663V6.66663Z" fill="#535A72"/>
<path d="M35.0003 3.33337H28.3337C27.4132 3.33337 26.667 4.07957 26.667 5.00004V11.6667C26.667 12.5872 27.4132 13.3334 28.3337 13.3334H35.0003C35.9208 13.3334 36.667 12.5872 36.667 11.6667V5.00004C36.667 4.07957 35.9208 3.33337 35.0003 3.33337Z" fill="#738ADA"/>
<path d="M31.667 36.6666C34.4284 36.6666 36.667 34.4281 36.667 31.6666C36.667 28.9052 34.4284 26.6666 31.667 26.6666C28.9056 26.6666 26.667 28.9052 26.667 31.6666C26.667 34.4281 28.9056 36.6666 31.667 36.6666Z" fill="#738ADA"/>
<path d="M19.9997 30H13.333V33.3333H19.9997C20.4417 33.3333 20.8656 33.1577 21.1782 32.8452C21.4907 32.5326 21.6663 32.1087 21.6663 31.6667C21.6663 31.2246 21.4907 30.8007 21.1782 30.4882C20.8656 30.1756 20.4417 30 19.9997 30Z" fill="#535A72"/>
<path d="M11.6663 26.6666H4.99967C4.0792 26.6666 3.33301 27.4128 3.33301 28.3333V35C3.33301 35.9204 4.0792 36.6666 4.99967 36.6666H11.6663C12.5868 36.6666 13.333 35.9204 13.333 35V28.3333C13.333 27.4128 12.5868 26.6666 11.6663 26.6666Z" fill="#738ADA"/>
<path d="M8.33301 13.3334C11.0944 13.3334 13.333 11.0948 13.333 8.33337C13.333 5.57195 11.0944 3.33337 8.33301 3.33337C5.57158 3.33337 3.33301 5.57195 3.33301 8.33337C3.33301 11.0948 5.57158 13.3334 8.33301 13.3334Z" fill="#738ADA"/>
<path d="M31.6667 26.6667C32.2357 26.6721 32.7996 26.7758 33.3333 26.9734V20C33.3333 19.558 33.1577 19.1341 32.8452 18.8215C32.5326 18.509 32.1087 18.3334 31.6667 18.3334C31.2246 18.3334 30.8007 18.509 30.4882 18.8215C30.1756 19.1341 30 19.558 30 20V26.9734C30.5337 26.7758 31.0976 26.6721 31.6667 26.6667Z" fill="#535A72"/>
<path d="M8.33366 13.3333C7.76458 13.3279 7.20072 13.2241 6.66699 13.0266V21.6666C6.66699 22.1086 6.84259 22.5326 7.15515 22.8451C7.46771 23.1577 7.89163 23.3333 8.33366 23.3333C8.77569 23.3333 9.19961 23.1577 9.51217 22.8451C9.82473 22.5326 10.0003 22.1086 10.0003 21.6666V13.0266C9.4666 13.2241 8.90274 13.3279 8.33366 13.3333Z" fill="#535A72"/>
</svg>
