<svg width="40" height="40" viewBox="0 0 40 40" fill="none" xmlns="http://www.w3.org/2000/svg">
<path d="M19.9997 27.0001C18.2905 27.0018 16.6399 26.377 15.3602 25.2439C14.0806 24.1108 13.2605 22.548 13.0552 20.8511C12.85 19.1543 13.2737 17.441 14.2462 16.0354C15.2188 14.6299 16.6728 13.6295 18.3331 13.2235V10.1501C16.0118 10.5414 13.9029 11.739 12.3778 13.5322C10.8526 15.3253 10.0089 17.5991 9.99529 19.9531C9.98163 22.3071 10.7989 24.5904 12.3031 26.4012C13.8074 28.2119 15.9022 29.4339 18.2188 29.852C20.5354 30.2702 22.9253 29.8577 24.9677 28.6871C27.01 27.5165 28.574 25.663 29.3842 23.4528C30.1944 21.2425 30.1989 18.8173 29.3969 16.6041C28.5949 14.3909 27.0378 12.5316 24.9997 11.3535V15.1168C25.9647 16.1 26.6176 17.3465 26.8762 18.6997C27.1349 20.0528 26.9879 21.4523 26.4536 22.7221C25.9193 23.9919 25.0216 25.0755 23.8733 25.8366C22.725 26.5978 21.3774 27.0026 19.9997 27.0001Z" fill="#535A72"/>
<path d="M24.9997 4.10179V7.64512C28.009 8.85917 30.4727 11.1284 31.9296 14.0279C33.3865 16.9275 33.7367 20.2586 32.9146 23.3977C32.0926 26.5368 30.1547 29.2688 27.4636 31.0821C24.7725 32.8954 21.5129 33.6658 18.2947 33.2491C15.0766 32.8323 12.1207 31.257 9.98034 28.818C7.83995 26.379 6.66184 23.2436 6.66653 19.9986C6.67123 16.7536 7.8584 13.6216 10.0058 11.1888C12.1533 8.75598 15.1137 7.18923 18.333 6.78179V3.41846C14.225 3.83181 10.4167 5.75521 7.64584 8.81603C4.87497 11.8768 3.33881 15.8572 3.33497 19.9859C3.33113 24.1146 4.85989 28.0978 7.62507 31.1638C10.3902 34.2297 14.195 36.1602 18.3022 36.5812C22.4094 37.0022 26.5267 35.8837 29.8563 33.4425C33.186 31.0012 35.491 27.411 36.3249 23.3674C37.1587 19.3237 36.462 15.1145 34.3696 11.5552C32.2773 7.99592 28.9384 5.33993 24.9997 4.10179Z" fill="#535A72"/>
<path d="M18.3337 17.1283C17.6982 17.4951 17.2015 18.0615 16.9207 18.7394C16.6399 19.4173 16.5907 20.169 16.7806 20.8777C16.9705 21.5865 17.389 22.2128 17.9711 22.6595C18.5533 23.1062 19.2665 23.3483 20.0003 23.3483C20.7341 23.3483 21.4474 23.1062 22.0295 22.6595C22.6117 22.2128 23.0302 21.5865 23.2201 20.8777C23.41 20.169 23.3607 19.4173 23.0799 18.7394C22.7991 18.0615 22.3025 17.4951 21.667 17.1283V3.41826C20.5588 3.30492 19.4419 3.30492 18.3337 3.41826V17.1283Z" fill="#738ADA"/>
</svg>
