<svg width="40" height="40" viewBox="0 0 40 40" fill="none" xmlns="http://www.w3.org/2000/svg">
<path d="M33.3333 23.3334C35.1743 23.3334 36.6667 21.841 36.6667 20.0001C36.6667 18.1591 35.1743 16.6667 33.3333 16.6667C31.4924 16.6667 30 18.1591 30 20.0001C30 21.841 31.4924 23.3334 33.3333 23.3334Z" fill="#535A72"/>
<path d="M6.66634 21.6667C8.50729 21.6667 9.99967 20.1743 9.99967 18.3333C9.99967 16.4924 8.50729 15 6.66634 15C4.82539 15 3.33301 16.4924 3.33301 18.3333C3.33301 20.1743 4.82539 21.6667 6.66634 21.6667Z" fill="#535A72"/>
<path d="M36.6667 13.3333C37.5871 13.3333 38.3333 12.5871 38.3333 11.6667C38.3333 10.7462 37.5871 10 36.6667 10C35.7462 10 35 10.7462 35 11.6667C35 12.5871 35.7462 13.3333 36.6667 13.3333Z" fill="#535A72"/>
<path d="M3.33366 28.3333C4.25413 28.3333 5.00033 27.5871 5.00033 26.6667C5.00033 25.7462 4.25413 25 3.33366 25C2.41318 25 1.66699 25.7462 1.66699 26.6667C1.66699 27.5871 2.41318 28.3333 3.33366 28.3333Z" fill="#535A72"/>
<path d="M31.667 36.6667C34.4284 36.6667 36.667 34.4282 36.667 31.6667C36.667 28.9053 34.4284 26.6667 31.667 26.6667C28.9056 26.6667 26.667 28.9053 26.667 31.6667C26.667 34.4282 28.9056 36.6667 31.667 36.6667Z" fill="#738ADA"/>
<path d="M9.16667 38.3333C11.4679 38.3333 13.3333 36.4679 13.3333 34.1667C13.3333 31.8655 11.4679 30 9.16667 30C6.86548 30 5 31.8655 5 34.1667C5 36.4679 6.86548 38.3333 9.16667 38.3333Z" fill="#738ADA"/>
<path d="M26.667 11.6667C29.4284 11.6667 31.667 9.42817 31.667 6.66675C31.667 3.90532 29.4284 1.66675 26.667 1.66675C23.9056 1.66675 21.667 3.90532 21.667 6.66675C21.667 9.42817 23.9056 11.6667 26.667 11.6667Z" fill="#738ADA"/>
<path d="M6.66634 9.99992C8.50729 9.99992 9.99967 8.50753 9.99967 6.66659C9.99967 4.82564 8.50729 3.33325 6.66634 3.33325C4.82539 3.33325 3.33301 4.82564 3.33301 6.66659C3.33301 8.50753 4.82539 9.99992 6.66634 9.99992Z" fill="#738ADA"/>
<path d="M19.9997 26.6666C23.6816 26.6666 26.6663 23.6818 26.6663 19.9999C26.6663 16.318 23.6816 13.3333 19.9997 13.3333C16.3178 13.3333 13.333 16.318 13.333 19.9999C13.333 23.6818 16.3178 26.6666 19.9997 26.6666Z" fill="#738ADA"/>
<path d="M16.6338 14.2767L9.87718 7.52002C9.72571 8.0851 9.42819 8.60036 9.01452 9.01403C8.60085 9.42771 8.08558 9.72522 7.52051 9.87669L14.2772 16.6334C14.85 15.6605 15.661 14.8495 16.6338 14.2767Z" fill="#535A72"/>
<path d="M24.9165 15.5317L26.4699 11.6467C25.3261 11.6031 24.2329 11.1643 23.3765 10.405L22.0615 13.6917C23.1568 14.0466 24.1408 14.6808 24.9165 15.5317Z" fill="#535A72"/>
<path d="M25.7229 23.3667C25.15 24.3395 24.339 25.1505 23.3662 25.7234L27.1662 29.5234C27.6591 28.4914 28.4909 27.6596 29.5229 27.1667L25.7229 23.3667Z" fill="#535A72"/>
<path d="M15.0149 24.3867L10.2832 30.1667C10.8358 30.3213 11.3504 30.5887 11.7945 30.9522C12.2385 31.3157 12.6024 31.7672 12.8632 32.2784L17.7882 26.2584C16.7191 25.8815 15.7643 25.2372 15.0149 24.3867Z" fill="#535A72"/>
</svg>
