<svg width="40" height="40" viewBox="0 0 40 40" fill="none" xmlns="http://www.w3.org/2000/svg">
<path d="M35 11.6667H5V6.66667C5 6.22464 5.17559 5.80072 5.48816 5.48816C5.80072 5.17559 6.22464 5 6.66667 5H33.3333C33.7754 5 34.1993 5.17559 34.5118 5.48816C34.8244 5.80072 35 6.22464 35 6.66667V11.6667Z" fill="#535A72"/>
<path d="M5 15V33.3333C5 33.7754 5.17559 34.1993 5.48816 34.5118C5.80072 34.8244 6.22464 35 6.66667 35H33.3333C33.7754 35 34.1993 34.8244 34.5118 34.5118C34.8244 34.1993 35 33.7754 35 33.3333V15H5ZM20 30H10V26.6667H20V30ZM30 23.3333H10V20H30V23.3333Z" fill="#738ADA"/>
</svg>
