<svg width="40" height="40" viewBox="0 0 40 40" fill="none" xmlns="http://www.w3.org/2000/svg">
<path d="M6.66699 20C6.66699 17.3629 7.44898 14.785 8.91406 12.5924C10.3791 10.3997 12.4615 8.69074 14.8979 7.68157C17.3342 6.6724 20.0151 6.40836 22.6015 6.92283C25.1879 7.4373 27.5637 8.70717 29.4284 10.5719C31.2931 12.4366 32.563 14.8123 33.0775 17.3988C33.5919 19.9852 33.3279 22.6661 32.3187 25.1024C31.3096 27.5388 29.6006 29.6211 27.4079 31.0862C25.2153 32.5513 22.6374 33.3333 20.0003 33.3333C16.4641 33.3333 13.0727 31.9285 10.5722 29.4281C8.07175 26.9276 6.66699 23.5362 6.66699 20Z" fill="#738ADA"/>
<path d="M36.6667 10V3.33337H30L36.6667 10Z" fill="#535A72"/>
<path d="M3.33301 3.33337V10L9.99967 3.33337H3.33301Z" fill="#535A72"/>
<path d="M36.6667 36.6667V30L30 36.6667H36.6667Z" fill="#535A72"/>
<path d="M3.33301 30V36.6667H9.99967L3.33301 30Z" fill="#535A72"/>
</svg>
