<?xml version="1.0" encoding="UTF-8"?> <svg xmlns="http://www.w3.org/2000/svg" width="240" height="240" viewBox="0 0 240 240" fill="none"> <path d="M71.0059 134.118L120 161.337L168.995 134.118L120 106.898L71.0059 134.118Z" fill="#706186"></path> <path d="M84.7061 157.879V179.166L120 196.814L155.294 179.166V157.879L120 177.486L84.7061 157.879Z" fill="#706186"></path> <path d="M240 56.4706V0H0V56.4706H240ZM84.7059 21.1765H98.8235V35.2941H84.7059V21.1765ZM56.4706 21.1765H70.5882V35.2941H56.4706V21.1765ZM28.2353 21.1765H42.3529V35.2941H28.2353V21.1765Z" fill="#706186"></path> <path d="M0 70.5879V240H240V70.5879H0ZM169.412 150.035V187.891L120 212.597L70.5882 187.891V150.035L54.6414 141.176H54.1176C51.5228 141.176 49.4118 143.287 49.4118 145.882V218.823H35.2941V145.882C35.2941 135.503 43.7379 127.059 54.1176 127.059H54.6414L120 90.7484L198.064 134.117L169.412 150.035Z" fill="#706186"></path> </svg> 