<?xml version="1.0" encoding="UTF-8"?> <svg xmlns="http://www.w3.org/2000/svg" width="240" height="240" viewBox="0 0 240 240" fill="none"> <path d="M183.669 189.252V143.004H127.826V127.352H172.356L181.309 11.1738H58.6898L67.6434 127.353H112.173V143.005H56.3301V189.252H112.173V201.469C100.894 203.967 91.3391 211.78 86.7266 222.77L101.159 228.828C103.295 223.738 107.301 219.86 112.173 217.835V228.712H127.825V217.835C132.698 219.861 136.704 223.738 138.839 228.828L153.272 222.77C148.658 211.78 139.103 203.967 127.825 201.469V189.252H183.669Z" fill="#706186"></path> <path d="M192.37 71.3301L188.053 127.352H224.346V228.203H239.998V71.3301H192.37Z" fill="#706186"></path> <path d="M47.6278 71.3301H0V228.203H15.652V127.352H51.9455L47.6278 71.3301Z" fill="#706186"></path> </svg> 