<?xml version="1.0" encoding="UTF-8"?> <svg xmlns="http://www.w3.org/2000/svg" width="240" height="240" viewBox="0 0 240 240" fill="none"> <g clip-path="url(#clip0)"> <path d="M82.3444 82.3326C82.3444 80.6957 82.3059 79.1393 82.2327 77.6543C65.1324 77.6726 56.7206 81.8584 47.8198 86.2914C38.3002 91.0301 27.5116 96.4025 7.02942 96.4025H0V162.335H7.03125C24.2047 162.335 32.6312 158.14 41.5521 153.698C47.8033 150.585 54.6039 147.2 64.3378 145.242C65.9729 132.392 70.0287 124.238 73.7073 116.854C78.1494 107.933 82.3444 99.5061 82.3444 82.3326Z" fill="#706186"></path> <path d="M123.131 153.698C129.22 156.73 135.081 159.647 143.648 161.193C143.612 160.041 143.592 158.86 143.592 157.642C143.592 137.16 148.964 126.371 153.703 116.852C156.733 110.767 159.648 104.908 161.195 96.3458C160.047 96.3824 158.868 96.4026 157.652 96.4026C137.172 96.4026 126.382 91.0303 116.864 86.2915C110.776 83.2611 104.914 80.3442 96.3505 78.7988C96.3871 79.9451 96.4072 81.1206 96.4072 82.3328C96.4072 102.813 91.0349 113.602 86.2961 123.121C83.2639 129.211 80.347 135.073 78.7998 143.644C79.9497 143.607 81.1271 143.587 82.3411 143.587C102.823 143.587 113.612 148.959 123.131 153.698Z" fill="#706186"></path> <path d="M94.7528 64.3378C107.594 65.9729 115.746 70.0269 123.131 73.7036C132.051 78.1458 140.478 82.3407 157.651 82.3407C159.292 82.3407 160.85 82.3022 162.341 82.229C162.322 65.127 158.137 56.7151 153.704 47.8143C148.965 38.2947 143.593 27.5061 143.593 7.02576V0H77.6562V7.02576C77.6562 24.1992 81.853 32.6239 86.2952 41.5448C89.408 47.7979 92.7954 54.6002 94.7528 64.3378Z" fill="#706186"></path> <path d="M145.248 175.655C132.401 174.02 124.248 169.964 116.863 166.287C107.94 161.845 99.5155 157.65 82.3402 157.65C80.7032 157.65 79.145 157.689 77.6582 157.762C77.6783 174.853 81.8641 183.263 86.2953 192.164C91.0341 201.682 96.4064 212.47 96.4064 232.953V239.997H162.341V232.953C162.341 215.777 158.144 207.353 153.702 198.432C150.591 192.182 147.207 185.384 145.248 175.655Z" fill="#706186"></path> <path d="M82.3444 232.952C82.3444 215.779 78.1494 207.352 73.7073 198.431C69.1406 189.26 63.9899 178.905 63.6182 159.844C57.4805 161.481 52.7234 163.846 47.8198 166.287C38.3002 171.028 27.5116 176.398 7.03125 176.398H0V232.965C0 236.849 3.14758 239.996 7.03125 239.996H82.3444V232.952Z" fill="#706186"></path> <path d="M7.03125 82.3407C24.2047 82.3407 32.6312 78.1458 41.5521 73.7036C50.7257 69.137 61.0822 63.9844 80.1508 63.6145C78.5138 57.475 76.1481 52.7179 73.7073 47.8125C68.9667 38.2947 63.5962 27.5061 63.5962 7.02576V0H7.03125C3.14758 0 0 3.14758 0 7.03125V82.3407H7.03125Z" fill="#706186"></path> <path d="M232.96 157.65C215.787 157.65 207.362 161.845 198.441 166.287C189.269 170.854 178.915 176.005 159.852 176.377C161.489 182.511 163.852 187.264 166.293 192.164C171.032 201.684 176.404 212.472 176.404 232.953V239.997H232.969C236.853 239.997 240 236.849 240 232.965V157.65H232.96Z" fill="#706186"></path> <path d="M157.654 7.02576C157.654 24.1992 161.851 32.6239 166.291 41.5448C170.86 50.7184 176.012 61.0748 176.38 80.1453C182.516 78.5083 187.272 76.1444 192.172 73.7036C201.691 68.9648 212.48 63.5925 232.96 63.5925H240V7.03125C240 3.14758 236.853 0 232.969 0H157.654V7.02576Z" fill="#706186"></path> <path d="M232.96 143.587H240V77.6543H232.96C215.787 77.6543 207.362 81.8492 198.441 86.2914C192.19 89.4042 185.391 92.7898 175.659 94.7472C174.024 107.587 169.968 115.738 166.293 123.121C161.851 132.042 157.654 140.469 157.654 157.642C157.654 159.285 157.695 160.845 157.766 162.335C174.863 162.317 183.273 158.131 192.172 153.698C201.691 148.959 212.48 143.587 232.96 143.587Z" fill="#706186"></path> </g> <defs> <clipPath id="clip0"> <rect width="60" height="60" fill="white" transform="scale(4)"></rect> </clipPath> </defs> </svg> 