<svg width="120" height="120" viewBox="0 0 58 58" fill="none" xmlns="http://www.w3.org/2000/svg">
<path d="M29.0012 45.1733C37.9333 45.1733 45.1743 37.9324 45.1743 29.0002C45.1743 20.0681 37.9333 12.8271 29.0012 12.8271C20.0691 12.8271 12.8281 20.0681 12.8281 29.0002C12.8281 37.9324 20.0691 45.1733 29.0012 45.1733Z" fill="#1D1B16"/>
<path d="M29 3.625C14.9871 3.625 3.625 14.9871 3.625 29C3.625 43.013 14.9871 54.375 29 54.375C43.013 54.375 54.375 43.013 54.375 29C54.375 14.9871 43.013 3.625 29 3.625ZM37.162 29.3908L24.7916 38.391C24.7238 38.4398 24.6439 38.4688 24.5606 38.475C24.4773 38.4812 24.3939 38.4645 24.3195 38.4265C24.2452 38.3885 24.1828 38.3307 24.1392 38.2595C24.0956 38.1882 24.0724 38.1063 24.0723 38.0228V20.0338C24.072 19.9501 24.0949 19.868 24.1384 19.7965C24.182 19.7251 24.2445 19.6671 24.319 19.629C24.3934 19.5908 24.477 19.574 24.5604 19.5805C24.6439 19.587 24.7239 19.6165 24.7916 19.6656L37.162 28.6602C37.2202 28.7015 37.268 28.7563 37.301 28.8197C37.3337 28.8832 37.351 28.954 37.351 29.0255C37.351 29.097 37.3337 29.1675 37.301 29.2313C37.268 29.2948 37.2202 29.3495 37.162 29.3908Z" fill="#FFC834"/>
</svg>
