<svg width="28" height="28" viewBox="0 0 28 28" fill="none" xmlns="http://www.w3.org/2000/svg">
<path fill-rule="evenodd" clip-rule="evenodd" d="M8.41563 0.534891C9.86016 0.468391 10.3207 0.453613 14.0004 0.453613C17.6801 0.453613 18.1406 0.469623 19.5839 0.534891C21.0272 0.60016 22.0124 0.830447 22.8744 1.16418C23.7771 1.5053 24.5961 2.03853 25.2734 2.72816C25.963 3.40424 26.495 4.22195 26.8349 5.12585C27.1699 5.98789 27.3989 6.97308 27.4654 8.41391C27.5319 9.8609 27.5467 10.3215 27.5467 13.9999C27.5467 17.6796 27.5307 18.1401 27.4654 19.5847C27.4001 21.0255 27.1699 22.0107 26.8349 22.8727C26.495 23.7768 25.9621 24.5958 25.2734 25.2729C24.5961 25.9625 23.7771 26.4945 22.8744 26.8344C22.0124 27.1694 21.0272 27.3984 19.5864 27.4649C18.1406 27.5314 17.6801 27.5462 14.0004 27.5462C10.3207 27.5462 9.86016 27.5302 8.41563 27.4649C6.9748 27.3997 5.98961 27.1694 5.12757 26.8344C4.22357 26.4945 3.40451 25.9616 2.72742 25.2729C2.03825 24.5964 1.50494 23.7777 1.16467 22.874C0.830935 22.0119 0.601879 21.0267 0.535379 19.5859C0.468879 18.1389 0.454102 17.6783 0.454102 13.9999C0.454102 10.3202 0.470111 9.85967 0.535379 8.41637C0.600648 6.97308 0.830935 5.98789 1.16467 5.12585C1.50545 4.22205 2.03916 3.4034 2.72865 2.72693C3.40478 2.03792 4.22302 1.50461 5.12634 1.16418C5.98838 0.830447 6.97356 0.601391 8.4144 0.534891H8.41563ZM19.4743 2.97322C18.0458 2.90796 17.6173 2.89441 14.0004 2.89441C10.3835 2.89441 9.95498 2.90796 8.52646 2.97322C7.20508 3.03357 6.48836 3.254 6.01055 3.43996C5.3788 3.68625 4.92684 3.97811 4.45272 4.45223C4.00329 4.88947 3.65741 5.42176 3.44044 6.01006C3.25449 6.48787 3.03405 7.20459 2.97371 8.52597C2.90844 9.95449 2.8949 10.383 2.8949 13.9999C2.8949 17.6168 2.90844 18.0453 2.97371 19.4738C3.03405 20.7952 3.25449 21.5119 3.44044 21.9898C3.65718 22.5772 4.00323 23.1104 4.45272 23.5476C4.8899 23.9971 5.42313 24.3431 6.01055 24.5599C6.48836 24.7458 7.20508 24.9662 8.52646 25.0266C9.95498 25.0919 10.3823 25.1054 14.0004 25.1054C17.6185 25.1054 18.0458 25.0919 19.4743 25.0266C20.7957 24.9662 21.5124 24.7458 21.9902 24.5599C22.622 24.3136 23.0739 24.0217 23.5481 23.5476C23.9976 23.1104 24.3436 22.5772 24.5603 21.9898C24.7463 21.5119 24.9667 20.7952 25.0271 19.4738C25.0923 18.0453 25.1059 17.6168 25.1059 13.9999C25.1059 10.383 25.0923 9.95449 25.0271 8.52597C24.9667 7.20459 24.7463 6.48787 24.5603 6.01006C24.3141 5.37831 24.0222 4.92635 23.5481 4.45223C23.1108 4.00283 22.5785 3.65696 21.9902 3.43996C21.5124 3.254 20.7957 3.03357 19.4743 2.97322ZM12.2702 18.1759C13.2365 18.5781 14.3124 18.6324 15.3143 18.3295C16.3162 18.0265 17.1818 17.3851 17.7633 16.5149C18.3448 15.6446 18.6062 14.5995 18.5027 13.5579C18.3993 12.5164 17.9374 11.5431 17.1961 10.8042C16.7235 10.3319 16.1521 9.97027 15.5229 9.74532C14.8938 9.52037 14.2226 9.43771 13.5577 9.5033C12.8928 9.56888 12.2506 9.78107 11.6776 10.1246C11.1045 10.4681 10.6147 10.9344 10.2435 11.49C9.8723 12.0455 9.62887 12.6764 9.53075 13.3373C9.43264 13.9982 9.48228 14.6727 9.6761 15.3121C9.86992 15.9515 10.2031 16.54 10.6517 17.0352C11.1002 17.5304 11.653 17.9199 12.2702 18.1759ZM9.07693 9.07645C9.72349 8.42989 10.4911 7.91701 11.3358 7.56709C12.1806 7.21718 13.086 7.03708 14.0004 7.03708C14.9148 7.03708 15.8202 7.21718 16.665 7.56709C17.5097 7.91701 18.2773 8.42989 18.9239 9.07645C19.5704 9.723 20.0833 10.4906 20.4332 11.3353C20.7831 12.1801 20.9632 13.0855 20.9632 13.9999C20.9632 14.9143 20.7831 15.8197 20.4332 16.6645C20.0833 17.5092 19.5704 18.2768 18.9239 18.9234C17.6181 20.2292 15.8471 20.9627 14.0004 20.9627C12.1537 20.9627 10.3827 20.2292 9.07693 18.9234C7.77115 17.6176 7.03757 15.8466 7.03757 13.9999C7.03757 12.1533 7.77115 10.3822 9.07693 9.07645ZM22.5075 8.07402C22.6677 7.92288 22.796 7.74113 22.8847 7.53952C22.9734 7.33792 23.0208 7.12057 23.024 6.90033C23.0272 6.6801 22.9862 6.46145 22.9034 6.25735C22.8206 6.05325 22.6976 5.86783 22.5419 5.71209C22.3862 5.55634 22.2007 5.43342 21.9966 5.35062C21.7925 5.26782 21.5739 5.22681 21.3537 5.23002C21.1334 5.23323 20.9161 5.28059 20.7145 5.36931C20.5129 5.45803 20.3311 5.5863 20.18 5.74652C19.886 6.05812 19.7251 6.47201 19.7313 6.90033C19.7376 7.32865 19.9105 7.73768 20.2134 8.04058C20.5163 8.34348 20.9253 8.5164 21.3537 8.52265C21.782 8.52889 22.1959 8.36796 22.5075 8.07402Z" fill="#B9D6C1"/>
</svg>
