<svg width="28" height="16" viewBox="0 0 28 16" fill="none" xmlns="http://www.w3.org/2000/svg">
<path fill-rule="evenodd" clip-rule="evenodd" d="M27.0683 1.09319C27.2577 0.470035 27.0683 0.0112305 26.1609 0.0112305H23.165C22.4026 0.0112305 22.0511 0.407263 21.8605 0.844383C21.8605 0.844383 20.3369 4.49199 18.1787 6.86134C17.4802 7.54841 17.1629 7.76639 16.7817 7.76639C16.5911 7.76639 16.3046 7.54841 16.3046 6.92411V1.09319C16.3046 0.344491 16.0946 0.0112305 15.4601 0.0112305H10.7488C10.2728 0.0112305 9.98637 0.358187 9.98637 0.688024C9.98637 1.39677 11.066 1.56112 11.1768 3.55612V7.8908C11.1768 8.8415 11.0021 9.01384 10.6209 9.01384C9.60518 9.01384 7.13425 5.34911 5.66768 1.15596C5.38349 0.339926 5.09588 0.0112305 4.33007 0.0112305H1.33186C0.475883 0.0112305 0.304688 0.407263 0.304688 0.844383C0.304688 1.62275 1.32045 5.48949 5.03539 10.6037C7.51202 14.0961 10.9987 15.9895 14.175 15.9895C16.0798 15.9895 16.3149 15.5695 16.3149 14.8448V12.2049C16.3149 11.3638 16.4952 11.196 17.099 11.196C17.5441 11.196 18.3053 11.4151 20.0835 13.0986C22.115 15.0947 22.4494 15.9895 23.593 15.9895H26.5889C27.4449 15.9895 27.874 15.5695 27.6275 14.7386C27.3559 13.9123 26.3858 12.7128 25.0995 11.2896C24.401 10.4793 23.3533 9.60618 23.0349 9.16906C22.5909 8.60868 22.7176 8.35873 23.0349 7.85998C23.0349 7.85998 26.6871 2.80857 27.0671 1.09319H27.0683Z" fill="#B9D6C1"/>
</svg>
