<svg width="200" height="88" viewBox="0 0 200 88" fill="none" xmlns="http://www.w3.org/2000/svg">
<path d="M27.8 87.91C22.3093 87.91 17.5533 86.866 13.532 84.778C9.51067 82.69 6.37867 79.7513 4.136 75.962C1.97067 72.1727 0.888 67.726 0.888 62.622V26.198C0.888 21.094 1.97067 16.6473 4.136 12.858C6.37867 9.06866 9.51067 6.12999 13.532 4.04199C17.5533 1.954 22.3093 0.909999 27.8 0.909999C33.368 0.909999 38.124 1.954 42.068 4.04199C46.0893 6.12999 49.1827 9.06866 51.348 12.858C53.5907 16.6473 54.712 21.094 54.712 26.198V62.622C54.712 67.726 53.5907 72.1727 51.348 75.962C49.1827 79.7513 46.0893 82.69 42.068 84.778C38.0467 86.866 33.2907 87.91 27.8 87.91ZM27.8 75.382C31.8213 75.382 35.0307 74.222 37.428 71.902C39.8253 69.582 41.024 66.4887 41.024 62.622V26.198C41.024 22.3313 39.8253 19.238 37.428 16.918C35.0307 14.598 31.8213 13.438 27.8 13.438C23.7787 13.438 20.5693 14.598 18.172 16.918C15.7747 19.238 14.576 22.3313 14.576 26.198V62.622C14.576 66.4887 15.7747 69.582 18.172 71.902C20.5693 74.222 23.7787 75.382 27.8 75.382ZM27.8 51.95C25.5573 51.95 23.7013 51.2153 22.232 49.746C20.84 48.2767 20.144 46.382 20.144 44.062C20.144 41.742 20.84 39.886 22.232 38.494C23.624 37.102 25.48 36.406 27.8 36.406C30.12 36.406 31.976 37.102 33.368 38.494C34.76 39.886 35.456 41.742 35.456 44.062C35.456 46.382 34.76 48.2767 33.368 49.746C31.976 51.2153 30.12 51.95 27.8 51.95ZM96.5427 87.91C91.052 87.91 86.2574 86.9047 82.1587 84.894C78.1374 82.8833 75.0054 80.0607 72.7627 76.426C70.52 72.7913 69.3987 68.4993 69.3987 63.55H84.0147C84.0147 67.3393 85.0974 70.3167 87.2627 72.482C89.5054 74.57 92.6374 75.614 96.6587 75.614C100.68 75.614 103.773 74.5313 105.939 72.366C108.104 70.2007 109.187 67.262 109.187 63.55V56.938C109.187 53.1487 108.104 50.21 105.939 48.122C103.773 45.9567 100.68 44.874 96.6587 44.874H87.1467V31.766L105.823 14.482H73.2267V2.07H120.555V15.178L96.6587 37.102V32.462C105.011 32.462 111.623 34.666 116.495 39.074C121.367 43.482 123.803 49.4367 123.803 56.938V63.55C123.803 68.4993 122.681 72.7913 120.439 76.426C118.196 80.0607 115.025 82.8833 110.927 84.894C106.828 86.9047 102.033 87.91 96.5427 87.91ZM162.849 82.11L183.845 54.27L162.733 26.43H178.509L199.273 54.27L178.393 82.11H162.849ZM134.661 82.11L155.657 54.27L134.545 26.43H150.321L171.085 54.27L150.205 82.11H134.661Z" fill="#212B23"/>
</svg>
