<svg width="240" height="124" viewBox="0 0 240 124" fill="none" xmlns="http://www.w3.org/2000/svg">
<path d="M37.8 123.56C30.208 123.56 23.604 122.156 17.988 119.348C12.372 116.436 8.004 112.432 4.884 107.336C1.868 102.136 0.36 96.104 0.36 89.24V40.88C0.36 34.016 1.868 28.036 4.884 22.94C8.004 17.74 12.372 13.736 17.988 10.928C23.604 8.016 30.208 6.56 37.8 6.56C45.496 6.56 52.1 8.016 57.612 10.928C63.228 13.736 67.544 17.74 70.56 22.94C73.68 28.036 75.24 34.016 75.24 40.88V89.24C75.24 96.104 73.68 102.136 70.56 107.336C67.544 112.432 63.228 116.436 57.612 119.348C52.1 122.156 45.496 123.56 37.8 123.56ZM37.8 103.28C42.688 103.28 46.484 102.032 49.188 99.536C51.996 97.04 53.4 93.608 53.4 89.24V40.88C53.4 36.512 51.996 33.08 49.188 30.584C46.484 28.088 42.688 26.84 37.8 26.84C32.912 26.84 29.064 28.088 26.256 30.584C23.552 33.08 22.2 36.512 22.2 40.88V89.24C22.2 93.608 23.604 97.04 26.412 99.536C29.22 102.032 33.016 103.28 37.8 103.28ZM37.8 75.824C34.576 75.824 31.924 74.784 29.844 72.704C27.868 70.624 26.88 67.92 26.88 64.592C26.88 61.264 27.868 58.612 29.844 56.636C31.924 54.66 34.576 53.672 37.8 53.672C41.128 53.672 43.78 54.66 45.756 56.636C47.732 58.612 48.72 61.264 48.72 64.592C48.72 67.92 47.732 70.624 45.756 72.704C43.78 74.784 41.128 75.824 37.8 75.824ZM130.715 123.56C119.067 123.56 109.811 120.648 102.947 114.824C96.0831 108.896 92.6511 100.888 92.6511 90.8H116.051C116.051 94.96 117.299 98.236 119.795 100.628C122.395 102.916 126.035 104.06 130.715 104.06C140.491 104.06 145.379 99.64 145.379 90.8V81.752C145.379 77.488 144.079 74.212 141.479 71.924C138.983 69.532 135.395 68.336 130.715 68.336H116.675V50.24L140.075 27.62H98.1111V8.12H164.411V26.216L140.699 49.46C149.435 51.02 156.299 54.608 161.291 60.224C166.283 65.84 168.779 72.964 168.779 81.596V90.8C168.779 100.888 165.347 108.896 158.483 114.824C151.723 120.648 142.467 123.56 130.715 123.56ZM199.138 49.46L211.618 0.943996H239.698L219.418 49.46H199.138Z" fill="#212B23"/>
</svg>
