<svg width="24" height="24" viewBox="0 0 24 24" fill="none" xmlns="http://www.w3.org/2000/svg">
<path d="M19.213 6.50053L6.64218 19.0713C6.21268 19.5008 5.50033 19.5008 5.07083 19.0713C4.64133 18.6418 4.64133 17.9295 5.07083 17.5L17.6416 4.92918C18.0711 4.49968 18.7835 4.49968 19.213 4.92918C19.6425 5.35869 19.6425 6.07103 19.213 6.50053Z" fill="white"/>
<path d="M19.213 19.0708C18.7835 19.5003 18.0711 19.5003 17.6416 19.0708L5.07083 6.50003C4.64133 6.07053 4.64133 5.35818 5.07083 4.92868C5.50033 4.49918 6.21268 4.49918 6.64218 4.92868L19.213 17.4995C19.6425 17.929 19.6425 18.6413 19.213 19.0708Z" fill="white"/>
</svg>
